#!OML:ASF F:\VICON\USERDATA\INSTALL\rory3\rory3.ASF
:FULLY-SPECIFIED
:DEGREES
443
root -0.625804 18.0922 -2.38688 179.852 -69.0012 -182.071
lowerback 16.0997 -1.46427 -0.933975
upperback -1.32557 -1.86482 3.24953
thorax -10.3799 -0.752371 4.54842
lowerneck 7.00719 -19.0705 -9.55858
upperneck -11.0313 -25.5903 12.3066
head -1.60472 -13.0481 5.31996
rclavicle 1.33186e-014 7.15625e-015
rhumerus -69.5138 -32.0787 -35.1776
rradius 17.5941
rwrist 25.6037
rhand 5.32331 5.44801
rfingers 7.12502
rthumb 30.6783 -22.0143
lclavicle 1.33186e-014 7.15625e-015
lhumerus -75.7013 17.4392 33.2731
lradius 23.7698
lwrist 6.27456
lhand -17.2286 65.5534
lfingers 7.12502
lthumb 9.01475 -815.341
rfemur -4.38588 5.28303 24.3253
rtibia 30.2089
rfoot -20.6884 -5.13291
rtoes 32.4532
lfemur -3.12816 -4.96668 -22.033
ltibia 26.3845
lfoot -15.3958 7.90196
ltoes -5.99964
444
root -0.639478 18.0894 -2.37217 179.777 -68.929 -181.937
lowerback 16.1245 -1.50441 -0.761553
upperback -1.44812 -1.89184 3.09718
thorax -10.5386 -0.772745 4.29506
lowerneck 7.30089 -19.0203 -9.79429
upperneck -10.785 -25.5525 12.7174
head -1.49233 -13.0475 5.45796
rclavicle -2.87244e-014 -1.27222e-014
rhumerus -69.219 -31.5546 -35.996
rradius 17.7845
rwrist 24.9288
rhand 4.62658 4.91892
rfingers 7.12502
rthumb 30.0137 -22.6659
lclavicle -2.87244e-014 -1.27222e-014
lhumerus -75.6963 17.2794 33.1665
lradius 23.9033
lwrist 5.13069
lhand -15.9542 65.8895
lfingers 7.12502
lthumb 10.2444 -815.62
rfemur -4.45808 5.42994 24.326
rtibia 30.2952
rfoot -20.7861 -5.01851
rtoes 33.2965
lfemur -3.06098 -5.17376 -22.1293
ltibia 26.2912
lfoot -15.4607 8.32414
ltoes -6.88275
445
root -0.654036 18.0814 -2.35088 179.698 -68.821 -181.849
lowerback 16.0627 -1.57109 -0.679224
upperback -1.42852 -1.96724 3.0856
thorax -10.4784 -0.815691 4.24968
lowerneck 7.18023 -18.9439 -10.2662
upperneck -10.4003 -25.486 13.0319
head -1.26374 -13.0132 5.53998
rclavicle 6.9674e-014 -1.51076e-014
rhumerus -68.7698 -31.3916 -36.3854
rradius 18.0278
rwrist 24.9208
rhand 3.75541 4.66237
rfingers 7.12502
rthumb 29.1822 -23.0699
lclavicle 6.9674e-014 -1.51076e-014
lhumerus -75.5229 17.2095 34.0543
lradius 24.0075
lwrist 5.00628
lhand -15.7549 65.6289
lfingers 7.12502
lthumb 10.4366 -815.35
rfemur -4.51603 5.34689 24.2658
rtibia 30.4038
rfoot -20.7713 -5.03319
rtoes 32.7012
lfemur -2.90148 -5.46262 -22.2575
ltibia 26.178
lfoot -15.5289 8.69564
ltoes -7.54288
446
root -0.667868 18.0724 -2.32828 179.538 -68.7324 -181.771
lowerback 16.1909 -1.59277 -0.547151
upperback -1.47804 -1.96923 3.0707
thorax -10.6123 -0.82102 4.16731
lowerneck 7.16787 -18.8402 -10.5962
upperneck -9.92772 -25.3933 13.0763
head -1.08433 -12.957 5.55133
rclavicle -9.39755e-014 2.06736e-014
rhumerus -68.4858 -31.3842 -36.4575
rradius 18.0208
rwrist 25.1157
rhand 2.67145 4.56715
rfingers 7.12502
rthumb 28.1466 -23.3402
lclavicle -9.39755e-014 2.06736e-014
lhumerus -75.3474 17.1413 34.9349
lradius 24.0679
lwrist 4.77588
lhand -15.4839 65.1895
lfingers 7.12502
lthumb 10.698 -814.897
rfemur -4.47687 5.07895 24.2103
rtibia 30.4736
rfoot -20.5931 -5.14148
rtoes 31.0624
lfemur -2.69671 -5.5202 -22.3503
ltibia 26.1068
lfoot -15.5232 8.87302
ltoes -8.06952
447
root -0.676404 18.0667 -2.30982 179.146 -68.7641 -181.413
lowerback 16.2712 -1.63608 -0.446238
upperback -1.48389 -1.99937 3.16879
thorax -10.6633 -0.838022 4.23003
lowerneck 7.03532 -18.7463 -10.8361
upperneck -9.57283 -25.2957 12.9981
head -0.950901 -12.8936 5.52069
rclavicle -1.25731e-014 3.10104e-014
rhumerus -68.055 -31.6221 -36.4505
rradius 17.9743
rwrist 25.448
rhand 1.28142 4.46885
rfingers 7.12502
rthumb 26.8172 -23.6497
lclavicle -1.25731e-014 3.10104e-014
lhumerus -75.3719 17.7187 35.2112
lradius 24.1937
lwrist 4.25915
lhand -16.2653 64.6789
lfingers 7.12502
lthumb 9.94421 -814.424
rfemur -4.41695 5.10011 24.3345
rtibia 30.4733
rfoot -20.5351 -5.42558
rtoes 30.042
lfemur -2.63273 -5.5028 -22.3161
ltibia 26.1244
lfoot -15.5025 9.03208
ltoes -9.21342
448
root -0.683045 18.0676 -2.29025 178.479 -68.8848 -180.664
lowerback 15.8861 -1.77565 -0.687743
upperback -1.17124 -2.21652 3.6356
thorax -10.0513 -0.938853 4.89925
lowerneck 6.48999 -18.5259 -11.1889
upperneck -9.64874 -24.9802 12.9702
head -0.886927 -12.7156 5.51487
rclavicle -1.54058e-015 -1.59028e-015
rhumerus -65.7561 -31.1166 -38.0129
rradius 17.9264
rwrist 24.7176
rhand 0.0714335 4.33187
rfingers 7.12502
rthumb 25.6588 -23.959
lclavicle -1.54058e-015 -1.59028e-015
lhumerus -75.3978 19.1787 35.9722
lradius 24.2953
lwrist 4.78171
lhand -19.3067 63.7303
lfingers 7.12502
lthumb 7.00905 -813.594
rfemur -4.44002 5.04659 24.5686
rtibia 30.4419
rfoot -20.4733 -5.50684
rtoes 29.7559
lfemur -2.70273 -5.62585 -22.1024
ltibia 26.1942
lfoot -15.6516 9.04024
ltoes -9.24107
449
root -0.693273 18.0726 -2.25379 177.835 -68.9731 -179.929
lowerback 15.9131 -1.77523 0.0572696
upperback -1.22102 -2.08246 3.49899
thorax -10.1646 -0.91642 4.29564
lowerneck 6.83658 -18.7408 -10.7573
upperneck -9.82429 -25.2543 12.9218
head -1.02039 -12.8693 5.49357
rclavicle -4.42296e-014 1.74931e-014
rhumerus -64.4992 -29.984 -40.0913
rradius 18.3143
rwrist 22.681
rhand -0.487592 4.08251
rfingers 7.12502
rthumb 25.1233 -24.2845
lclavicle -4.42296e-014 1.74931e-014
lhumerus -74.2188 19.025 37.5605
lradius 24.2207
lwrist 5.65755
lhand -21.4264 63.1151
lfingers 7.12502
lthumb 4.96267 -813.037
rfemur -4.51964 4.53184 24.6535
rtibia 30.4236
rfoot -20.2744 -5.12705
rtoes 29.6953
lfemur -2.75432 -5.73751 -21.9051
ltibia 26.2763
lfoot -16.0179 8.79507
ltoes -6.94466
450
root -0.702485 18.0694 -2.26067 177.906 -69.0092 -179.98
lowerback 15.6528 -1.78475 -0.240651
upperback -1.16057 -2.15784 3.49199
thorax -9.9319 -0.941708 4.45805
lowerneck 6.87933 -18.7949 -10.47
upperneck -9.72071 -25.3149 12.7628
head -1.04613 -12.9005 5.42094
rclavicle -2.78299e-014 5.56597e-015
rhumerus -63.1759 -29.1767 -41.7615
rradius 18.7769
rwrist 21.1762
rhand -0.969596 3.7173
rfingers 7.12502
rthumb 24.6614 -24.7136
lclavicle -2.78299e-014 5.56597e-015
lhumerus -73.397 19.1324 38.8576
lradius 24.2331
lwrist 6.0109
lhand -21.0737 63.1117
lfingers 7.12502
lthumb 5.30319 -813.025
rfemur -4.52434 4.51336 24.6697
rtibia 30.4202
rfoot -20.1891 -5.29685
rtoes 29.4277
lfemur -2.80072 -5.5919 -21.9122
ltibia 26.3658
lfoot -16.2287 8.6624
ltoes -5.95897
451
root -0.707456 18.0642 -2.25624 178.367 -68.9712 -180.495
lowerback 15.2563 -1.80207 -0.992792
upperback -0.867358 -2.3195 3.7394
thorax -9.33016 -0.995486 5.15875
lowerneck 6.67843 -18.6373 -10.7783
upperneck -9.79914 -25.1054 12.8597
head -1.01098 -12.7895 5.47123
rclavicle -1.51076e-014 1.19271e-014
rhumerus -61.596 -29.2567 -42.5024
rradius 19.1091
rwrist 21.0168
rhand -2.21939 3.74311
rfingers 7.12502
rthumb 23.463 -24.8462
lclavicle -1.51076e-014 1.19271e-014
lhumerus -72.6164 19.9023 40.4977
lradius 24.2138
lwrist 6.42109
lhand -18.8188 63.473
lfingers 7.12502
lthumb 7.48004 -813.321
rfemur -4.48871 4.63217 24.4889
rtibia 30.381
rfoot -20.0769 -5.50227
rtoes 28.6109
lfemur -2.85438 -5.33694 -22.1477
ltibia 26.48
lfoot -16.2846 8.74113
ltoes -6.19883
452
root -0.715063 18.0631 -2.22931 178.174 -68.9711 -180.343
lowerback 14.6914 -1.86992 -1.46014
upperback -0.340921 -2.49587 4.18827
thorax -8.37842 -1.0933 5.89525
lowerneck 6.14447 -18.4284 -11.1742
upperneck -10.1226 -24.7974 12.924
head -1.00386 -12.6212 5.51117
rclavicle -2.54444e-014 -6.36111e-015
rhumerus -59.5018 -29.4763 -43.3351
rradius 19.4345
rwrist 21.4235
rhand -3.52643 3.97332
rfingers 7.12502
rthumb 22.2087 -24.7708
lclavicle -2.54444e-014 -6.36111e-015
lhumerus -71.6844 21.3442 42.1647
lradius 24.1329
lwrist 6.10807
lhand -20.2707 63.1052
lfingers 7.12502
lthumb 6.07852 -812.998
rfemur -4.46029 4.50694 24.4177
rtibia 30.3947
rfoot -20.163 -5.264
rtoes 29.0979
lfemur -2.8414 -4.82183 -22.0995
ltibia 26.4966
lfoot -16.211 8.39562
ltoes -6.21873
453
root -0.725302 18.0618 -2.18101 176.63 -69.0271 -178.921
lowerback 15.2034 -1.90608 -0.194987
upperback -0.489675 -2.32194 4.0499
thorax -8.90476 -1.05298 5.02195
lowerneck 6.39879 -18.5575 -11.397
upperneck -9.83723 -25.017 13.0256
head -0.892926 -12.7317 5.54902
rclavicle -1.48095e-014 1.11319e-014
rhumerus -58.409 -27.8365 -45.4723
rradius 19.9216
rwrist 19.1046
rhand -3.89869 3.60788
rfingers 7.12502
rthumb 21.8512 -25.1784
lclavicle -1.48095e-014 1.11319e-014
lhumerus -70.3845 21.1041 43.6402
lradius 23.9902
lwrist 5.84525
lhand -19.9398 63.0967
lfingers 7.12502
lthumb 6.39797 -812.98
rfemur -4.26817 3.88401 24.7083
rtibia 30.4332
rfoot -20.2297 -4.60589
rtoes 30.1104
lfemur -2.59462 -4.4205 -21.6226
ltibia 26.4723
lfoot -16.2029 7.90627
ltoes -5.37604
454
root -0.730309 18.0641 -2.19736 176.669 -68.8715 -179.011
lowerback 15.1311 -1.78568 -0.57855
upperback -0.520738 -2.23212 3.94912
thorax -8.89447 -0.991226 5.10799
lowerneck 6.74527 -18.5929 -11.2524
upperneck -9.68576 -25.0837 13.1521
head -0.892409 -12.7808 5.58881
rclavicle -7.99114e-014 -2.22639e-014
rhumerus -57.8846 -28.5227 -45.6605
rradius 19.4522
rwrist 19.4638
rhand -4.88415 3.71957
rfingers 7.12502
rthumb 20.9047 -25.174
lclavicle -7.99114e-014 -2.22639e-014
lhumerus -68.9852 20.967 45.2238
lradius 23.8524
lwrist 6.27947
lhand -20.9878 62.7949
lfingers 7.12502
lthumb 5.38609 -812.706
rfemur -4.26371 4.65522 24.8289
rtibia 30.5055
rfoot -20.3536 -4.98945
rtoes 30.9254
lfemur -2.49677 -4.55358 -21.6941
ltibia 26.4355
lfoot -16.3012 8.24584
ltoes -5.66549
455
root -0.735063 18.0636 -2.19061 176.621 -68.9932 -179.025
lowerback 15.0977 -1.89234 -0.715926
upperback -0.544557 -2.40507 3.80182
thorax -8.8864 -1.06919 5.06218
lowerneck 7.30278 -18.4627 -10.8095
upperneck -9.89759 -24.904 13.2256
head -1.10296 -12.7194 5.65359
rclavicle 2.52457e-014 3.89618e-014
rhumerus -56.2621 -27.3329 -47.7777
rradius 19.3819
rwrist 17.5446
rhand -6.25992 3.96963
rfingers 7.12502
rthumb 19.5825 -25.0641
lclavicle 2.52457e-014 3.89618e-014
lhumerus -67.6762 20.9505 46.7991
lradius 23.8869
lwrist 7.54687
lhand -23.8817 62.3207
lfingers 7.12502
lthumb 2.59161 -812.285
rfemur -4.24563 4.65253 24.8528
rtibia 30.587
rfoot -20.3292 -5.41927
rtoes 29.7063
lfemur -2.46987 -4.37809 -21.7243
ltibia 26.4202
lfoot -16.1811 8.25016
ltoes -7.52161
456
root -0.737791 18.0658 -2.17798 176.664 -69.1654 -179.096
lowerback 15.0296 -2.01312 -0.809181
upperback -0.533836 -2.58422 3.79061
thorax -8.81638 -1.15336 5.1374
lowerneck 7.52912 -18.4078 -10.6747
upperneck -9.91907 -24.8399 13.0651
head -1.18935 -12.6876 5.63122
rclavicle 5.25785e-014 -2.38542e-014
rhumerus -54.6008 -26.0925 -49.6444
rradius 19.7391
rwrist 15.7249
rhand -7.44395 4.20696
rfingers 7.12502
rthumb 18.4438 -24.9387
lclavicle 5.25785e-014 -2.38542e-014
lhumerus -66.4202 21.4009 48.3675
lradius 23.8525
lwrist 8.16368
lhand -27.9392 60.984
lfingers 7.12502
lthumb -1.32719 -810.96
rfemur -4.30033 4.41882 24.8151
rtibia 30.7762
rfoot -20.2913 -5.83654
rtoes 27.8956
lfemur -2.47236 -3.62424 -21.5975
ltibia 26.3382
lfoot -16.086 7.18991
ltoes -6.47646
